# Blender v2.90.1 OBJ File: 'debug_cube.blend'
# www.blender.org
mtllib debug_cube.mtl
o Cube
v 1.000000 1.000000 1.000000
v 1.000000 1.000000 -1.000000
v 1.000000 -1.000000 1.000000
v 1.000000 -1.000000 -1.000000
v -1.000000 1.000000 1.000000
v -1.000000 1.000000 -1.000000
v -1.000000 -1.000000 1.000000
v -1.000000 -1.000000 -1.000000
v 0.000000 0.000000 1.000000
v -1.000000 0.000000 0.000000
v 0.000000 0.000000 -1.000000
v 0.000000 1.000000 0.000000
v 1.000000 0.000000 0.000000
v 0.000000 -1.000000 0.000000
vt 0.375000 0.000000
vt 0.625000 0.000000
vt 0.500000 0.125000
vt 0.125000 0.500000
vt 0.375000 0.500000
vt 0.250000 0.625000
vt 0.375000 0.250000
vt 0.625000 0.250000
vt 0.500000 0.375000
vt 0.375000 0.750000
vt 0.625000 0.750000
vt 0.500000 0.875000
vt 0.625000 0.500000
vt 0.500000 0.625000
vt 0.875000 0.500000
vt 0.750000 0.625000
vt 0.875000 0.750000
vt 0.125000 0.750000
vt 0.625000 1.000000
vt 0.375000 1.000000
vn -1.0000 0.0000 0.0000
vn 0.0000 0.0000 -1.0000
vn 0.0000 1.0000 0.0000
vn 0.0000 -1.0000 0.0000
vn 1.0000 0.0000 0.0000
vn 0.0000 0.0000 1.0000
g Cube_Cube_green
usemtl green
s off
f 8/1/1 7/2/1 10/3/1
g Cube_Cube_magenta
usemtl magenta
f 6/4/2 2/5/2 11/6/2
g Cube_Cube_teal
usemtl teal
f 6/7/3 5/8/3 12/9/3
g Cube_Cube_red
usemtl red
f 4/10/4 3/11/4 14/12/4
g Cube_Cube_magenta
usemtl magenta
f 2/5/5 1/13/5 13/14/5
f 1/13/6 5/15/6 9/16/6
g Cube_Cube_teal
usemtl teal
f 5/15/6 7/17/6 9/16/6
g Cube_Cube_green
usemtl green
f 7/17/6 3/11/6 9/16/6
g Cube_Cube_red
usemtl red
f 3/11/6 1/13/6 9/16/6
g Cube_Cube_yellow
usemtl yellow
f 7/2/1 5/8/1 10/3/1
g Cube_Cube_magenta
usemtl magenta
f 5/8/1 6/7/1 10/3/1
g Cube_Cube_blue
usemtl blue
f 6/7/1 8/1/1 10/3/1
g Cube_Cube_red
usemtl red
f 2/5/2 4/10/2 11/6/2
g Cube_Cube_green
usemtl green
f 4/10/2 8/18/2 11/6/2
g Cube_Cube_teal
usemtl teal
f 8/18/2 6/4/2 11/6/2
g Cube_Cube_yellow
usemtl yellow
f 5/8/3 1/13/3 12/9/3
g Cube_Cube_red
usemtl red
f 1/13/3 2/5/3 12/9/3
g Cube_Cube_blue
usemtl blue
f 2/5/3 6/7/3 12/9/3
g Cube_Cube_yellow
usemtl yellow
f 1/13/5 3/11/5 13/14/5
g Cube_Cube_green
usemtl green
f 3/11/5 4/10/5 13/14/5
g Cube_Cube_blue
usemtl blue
f 4/10/5 2/5/5 13/14/5
g Cube_Cube_yellow
usemtl yellow
f 3/11/4 7/19/4 14/12/4
g Cube_Cube_teal
usemtl teal
f 7/19/4 8/20/4 14/12/4
g Cube_Cube_blue
usemtl blue
f 8/20/4 4/10/4 14/12/4
